<svg width="27" height="31" viewBox="0 0 27 31" fill="none" xmlns="http://www.w3.org/2000/svg">
<g clip-path="url(#clip0_1_446)">
<path d="M21.6401 22.8767C19.8924 22.6918 18.1946 22.1763 16.5919 21.3452C15.7962 20.9381 14.8764 21.3098 14.4915 22.1969L12.9 25.8592C9.33378 23.6648 6.38928 20.2509 4.49663 16.1161L7.65696 14.2709C8.42369 13.8227 8.74584 12.7526 8.39148 11.8375C7.67468 9.9755 7.23011 8.00708 7.07225 5.98637C6.99655 5.0115 6.31036 4.27568 5.47759 4.27568H1.37011C0.925541 4.27568 0.564728 4.69402 0.564728 5.20946C0.564728 9.00996 1.2783 12.676 2.68934 16.1105C4.83006 21.2687 8.45913 25.4763 12.9113 27.9583C15.8687 29.5924 19.0322 30.4216 22.3102 30.4216C22.7547 30.4216 23.1156 30.0033 23.1156 29.4878V24.7255C23.1156 23.76 22.4809 22.9663 21.6401 22.8767ZM2.19161 6.14512L5.46792 6.15445C5.64188 8.38059 6.13156 10.5507 6.93372 12.6069L3.80399 14.4334C2.82786 11.7945 2.28664 9.01557 2.19161 6.14512ZM21.5048 28.5354C19.029 28.4233 16.6306 27.7958 14.3562 26.6678L15.9347 23.0522C17.7001 23.9673 19.5702 24.5351 21.5048 24.7255V28.5354Z" fill="#EFAF57"/>
<path d="M18.2832 0.540543C13.8423 0.540543 10.2294 3.89096 10.2294 8.01081C10.2294 9.95122 10.9977 11.7385 12.4055 13.1018L11.8563 16.2281C11.7934 16.5867 11.9158 16.9527 12.1687 17.1675C12.3105 17.287 12.478 17.3486 12.6455 17.3486C12.7792 17.3486 12.9145 17.3094 13.0353 17.231L16.1683 15.2178C16.8625 15.3933 17.5729 15.4811 18.2832 15.4811C22.7241 15.4811 26.3371 12.1307 26.3371 8.01081C26.3371 3.89096 22.7241 0.540543 18.2832 0.540543ZM18.2832 13.6135C17.6003 13.6135 16.9173 13.5164 16.2553 13.324C16.1925 13.3054 16.1103 13.296 16.0443 13.296C15.9073 13.296 15.7737 13.3352 15.6545 13.4137L13.7827 14.6164L14.0807 12.9206C14.0888 12.8628 14.0952 12.7843 14.0952 12.7227C14.0952 12.7227 14.0952 12.7208 14.0952 12.719C14.0952 12.7171 14.0952 12.7171 14.0952 12.7133C14.0952 12.7115 14.0952 12.7096 14.0952 12.7096C14.0952 12.7077 14.0952 12.7059 14.0952 12.7059C14.0936 12.6144 14.0823 12.5266 14.0614 12.4444C14.0115 12.2521 13.9068 12.0821 13.7618 11.9607C12.5231 10.9205 11.8401 9.51794 11.8401 8.01081C11.8401 4.92186 14.7299 2.40811 18.2832 2.40811C21.8366 2.40811 24.7263 4.92186 24.7263 8.01081C24.7263 11.0998 21.8366 13.6135 18.2832 13.6135Z" fill="#EFAF57"/>
</g>
<defs>
<clipPath id="clip0_1_446">
<rect width="25.7724" height="29.8811" fill="white" transform="translate(0.564728 0.540543)"/>
</clipPath>
</defs>
</svg>
