<svg width="27" height="31" viewBox="0 0 27 31" fill="none" xmlns="http://www.w3.org/2000/svg">
<g clip-path="url(#clip0_1_435)">
<path d="M26.2293 24.2152L21.5548 14.8064C22.038 13.5383 22.3103 12.1414 22.3103 10.6716C22.3103 5.00729 18.3365 0.400002 13.451 0.400002C8.56552 0.400002 4.59175 5.00729 4.59175 10.6716C4.59175 12.1414 4.86397 13.5383 5.3472 14.8045L0.672734 24.2115C0.510046 24.5402 0.532597 24.9492 0.732333 25.248C0.932069 25.5468 1.2655 25.6813 1.5796 25.5804L6.30883 24.105L7.56684 29.5863C7.6506 29.9524 7.91638 30.2232 8.23854 30.2717C8.27558 30.2792 8.31102 30.2811 8.34485 30.2811C8.62995 30.2811 8.89734 30.1055 9.04231 29.8142L13.451 20.9657L17.8597 29.8142C18.0047 30.1055 18.272 30.2811 18.5571 30.2811C18.591 30.2811 18.628 30.2792 18.6635 30.2736C18.9856 30.2251 19.2514 29.9543 19.3352 29.5882L20.5932 24.1069L25.3224 25.5823C25.6365 25.6831 25.9715 25.5487 26.1697 25.2499C26.3678 24.951 26.392 24.542 26.2293 24.2152ZM8.6219 26.9251L7.65705 22.7212C7.60228 22.4821 7.46698 22.2767 7.28174 22.1516C7.0965 22.0283 6.87421 21.9966 6.66964 22.0582L3.03896 23.1899L6.27661 16.674C7.5604 18.732 9.47883 20.2224 11.7033 20.7415L8.6219 26.9251ZM6.20252 10.6716C6.20252 6.03819 9.45467 2.26757 13.451 2.26757C17.4473 2.26757 20.6995 6.03819 20.6995 10.6716C20.6995 15.3051 17.4473 19.0757 13.451 19.0757C9.45467 19.0757 6.20252 15.3051 6.20252 10.6716ZM20.2324 22.06C20.0262 21.9966 19.8055 22.0302 19.6203 22.1534C19.435 22.2767 19.2997 22.4821 19.2449 22.723L18.2801 26.9269L15.1987 20.7434C17.4216 20.2261 19.3416 18.7339 20.6254 16.6759L23.863 23.1918L20.2324 22.06Z" fill="#0165C3"/>
<path d="M18.2417 8.34089C18.1564 8.04021 17.9453 7.81237 17.6812 7.73206L15.3971 7.0392L14.1439 4.59268C13.854 4.02494 13.0486 4.02494 12.7603 4.59268L11.5071 7.0392L9.2214 7.73206C8.95562 7.81237 8.74622 8.04021 8.65924 8.34089C8.57226 8.64157 8.6238 8.97026 8.79455 9.21865L10.3264 11.4411L10.1589 14.3451C10.1412 14.6682 10.2684 14.9801 10.4971 15.1687C10.7259 15.3573 11.0222 15.3928 11.2784 15.2658L13.4513 14.1957L15.6242 15.2658C15.7257 15.3163 15.8336 15.3405 15.9399 15.3405C16.1042 15.3405 16.2685 15.2826 16.4071 15.1687C16.6358 14.9801 16.763 14.6682 16.7437 14.3451L16.5762 11.4411L18.1064 9.21865C18.2772 8.97213 18.3271 8.64157 18.2417 8.34089ZM15.1233 10.5596C14.9976 10.7426 14.9348 10.9723 14.9493 11.2039L15.0508 12.9538L13.767 12.3207C13.6655 12.2703 13.5576 12.246 13.4513 12.246C13.345 12.246 13.2371 12.2703 13.1356 12.3207L11.8534 12.9538L11.9533 11.2039C11.9678 10.9723 11.905 10.7426 11.7793 10.5596L10.8273 9.17569L12.2335 8.74802C12.4381 8.68639 12.6137 8.53138 12.7216 8.32222L13.4513 6.89726L14.181 8.32222C14.2889 8.53138 14.4645 8.68639 14.669 8.74802L16.0752 9.17569L15.1233 10.5596Z" fill="#0165C3"/>
</g>
<defs>
<clipPath id="clip0_1_435">
<rect width="25.7724" height="29.8811" fill="white" transform="translate(0.564728 0.400002)"/>
</clipPath>
</defs>
</svg>
