<svg width="27" height="31" viewBox="0 0 27 31" fill="none" xmlns="http://www.w3.org/2000/svg">
<g clip-path="url(#clip0_1_457)">
<path d="M26.3129 10.7267L24.7022 3.25645C24.6136 2.83999 24.2898 2.54865 23.9209 2.54865H2.98089C2.61202 2.54865 2.28826 2.83999 2.19966 3.25645L0.588889 10.7267C0.572782 10.7996 0.564728 10.8761 0.564728 10.9527C0.564728 12.5177 1.2042 13.8979 2.1755 14.7457V27.7608C2.1755 28.2763 2.53631 28.6946 2.98089 28.6946H11.0348C11.4793 28.6946 11.8401 28.2763 11.8401 27.7608V21.2243H15.0617V27.7608C15.0617 28.2763 15.4225 28.6946 15.8671 28.6946H23.9209C24.3655 28.6946 24.7263 28.2763 24.7263 27.7608V14.7457C25.6976 13.8979 26.3371 12.5177 26.3371 10.9527C26.3371 10.8761 26.329 10.7996 26.3129 10.7267ZM23.1156 26.827H16.6725V20.2905C16.6725 19.7751 16.3116 19.3568 15.8671 19.3568H11.0348C10.5902 19.3568 10.2294 19.7751 10.2294 20.2905V26.827H3.78627V15.5469C3.9844 15.5861 4.18414 15.6216 4.39031 15.6216C5.61772 15.6216 6.70983 14.9138 7.41051 13.8157C8.1112 14.9138 9.2033 15.6216 10.4307 15.6216C11.6581 15.6216 12.7502 14.9138 13.4509 13.8157C14.1516 14.9138 15.2437 15.6216 16.4711 15.6216C17.6985 15.6216 18.7906 14.9138 19.4913 13.8157C20.192 14.9138 21.2841 15.6216 22.5115 15.6216C22.7177 15.6216 22.9174 15.5861 23.1156 15.5469V26.827ZM22.5115 13.7541C21.2905 13.7541 20.2967 12.4972 20.2967 10.9527C20.2967 10.4373 19.9359 10.0189 19.4913 10.0189C19.0467 10.0189 18.6859 10.4373 18.6859 10.9527C18.6859 12.4972 17.6921 13.7541 16.4711 13.7541C15.2501 13.7541 14.2563 12.4972 14.2563 10.9527C14.2563 10.4373 13.8955 10.0189 13.4509 10.0189C13.0063 10.0189 12.6455 10.4373 12.6455 10.9527C12.6455 12.4972 11.6517 13.7541 10.4307 13.7541C9.20975 13.7541 8.2159 12.4972 8.2159 10.9527C8.2159 10.4373 7.85509 10.0189 7.41051 10.0189C6.96594 10.0189 6.60513 10.4373 6.60513 10.9527C6.60513 12.4972 5.61128 13.7541 4.39031 13.7541C3.19834 13.7541 2.22221 12.5551 2.17711 11.061L3.6107 4.41621H23.2927L24.7263 11.061C24.6796 12.5551 23.7035 13.7541 22.5115 13.7541Z" fill="#64A7AE"/>
</g>
<defs>
<clipPath id="clip0_1_457">
<rect width="25.7724" height="29.8811" fill="white" transform="translate(0.564728 0.681091)"/>
</clipPath>
</defs>
</svg>
